<?xml version="1.0" encoding="UTF-8" standalone="no"?>
<!-- Created with Inkscape (http://www.inkscape.org/) -->

<svg
   xmlns:dc="http://purl.org/dc/elements/1.1/"
   xmlns:cc="http://creativecommons.org/ns#"
   xmlns:rdf="http://www.w3.org/1999/02/22-rdf-syntax-ns#"
   xmlns:svg="http://www.w3.org/2000/svg"
   xmlns="http://www.w3.org/2000/svg"
   xmlns:sodipodi="http://sodipodi.sourceforge.net/DTD/sodipodi-0.dtd"
   xmlns:inkscape="http://www.inkscape.org/namespaces/inkscape"
   width="315"
   height="180"
   id="svg2"
   version="1.1"
   inkscape:version="0.48.4 r9939"
   sodipodi:docname="soviet.svg">
  <defs
     id="defs4" />
  <sodipodi:namedview
     id="base"
     pagecolor="#ffffff"
     bordercolor="#666666"
     borderopacity="1.0"
     inkscape:pageopacity="0.0"
     inkscape:pageshadow="2"
     inkscape:zoom="1.9192898"
     inkscape:cx="260.86914"
     inkscape:cy="90.097432"
     inkscape:document-units="px"
     inkscape:current-layer="layer1"
     showgrid="true"
     inkscape:window-width="1364"
     inkscape:window-height="766"
     inkscape:window-x="0"
     inkscape:window-y="0"
     inkscape:window-maximized="0"
     units="in"
     gridtolerance="5"
     showguides="true"
     inkscape:guide-bbox="true">
    <sodipodi:guide
       orientation="1,0"
       position="30.219511,108.37342"
       id="guide3998" />
    <sodipodi:guide
       orientation="0,1"
       position="3.1261563,29.698485"
       id="guide4000" />
    <sodipodi:guide
       orientation="1,0"
       position="285.00125,136.50882"
       id="guide4002" />
    <sodipodi:guide
       orientation="0,1"
       position="48.976449,150.0555"
       id="guide4004" />
    <sodipodi:guide
       orientation="1,0"
       position="117.1579,230.63158"
       id="guide5252" />
  </sodipodi:namedview>
  <metadata
     id="metadata7">
    <rdf:RDF>
      <cc:Work
         rdf:about="">
        <dc:format>image/svg+xml</dc:format>
        <dc:type
           rdf:resource="http://purl.org/dc/dcmitype/StillImage" />
        <dc:title></dc:title>
      </cc:Work>
    </rdf:RDF>
  </metadata>
  <g
     inkscape:label="Layer 1"
     inkscape:groupmode="layer"
     id="layer1"
     transform="translate(0,-872.35975)">
    <g
       style="font-size:62.93597794px;font-style:normal;font-weight:normal;line-height:125%;letter-spacing:0px;word-spacing:0px;fill:#000000;fill-opacity:1;stroke:none;font-family:Sans"
       id="text3032">
      <path
         d="m 44.065426,921.1199 0,8.81104 23.915672,0 0,13.84592 -37.761587,0 0,-28.95055 12.587196,-12.5872 25.174391,0 0,13.84592 -18.880794,0 -5.034878,5.03487"
         style="font-variant:normal;font-stretch:normal;font-family:Propaganda;-inkscape-font-specification:Propaganda"
         id="path5594" />
      <path
         d="m 111.98711,916.08503 -15.733991,0 13.845911,13.84591 1.88808,0 0,13.84592 -37.761583,0 0,-13.84592 15.733994,0 -13.845915,-13.84591 -1.888079,0 0,-13.84592 37.761583,0 0,13.84592"
         style="font-variant:normal;font-stretch:normal;font-family:Propaganda;-inkscape-font-specification:Propaganda"
         id="path5596" />
      <path
         d="m 132.07746,921.1199 0,8.81104 23.91567,0 0,13.84592 -37.76159,0 0,-28.95055 12.5872,-12.5872 25.17439,0 0,13.84592 -18.88079,0 -5.03488,5.03487"
         style="font-variant:normal;font-stretch:normal;font-family:Propaganda;-inkscape-font-specification:Propaganda"
         id="path5598" />
      <path
         d="m 162.23756,943.77686 0,-20.95897 9.11259,-9.11259 18.22519,0 0,30.07156 -10.02385,0 0,-5.01193 -7.29008,0 0,5.01193 -10.02385,0 m 10.02385,-16.40267 0,1.36689 7.29008,0 0,-5.01193 -3.64504,0 -3.64504,3.64504"
         style="font-size:45.56295776px"
         id="path5600" />
      <path
         d="m 194.09604,943.77686 0,-30.07156 27.33777,0 0,11.39074 -3.64504,3.64504 3.64504,3.64504 0,11.39074 -27.33777,0 m 10.02385,-20.04771 0,10.02385 5.01192,0 -5.01192,-5.01192 5.01192,-5.01193 -5.01192,0"
         style="font-size:45.56295776px"
         id="path5602" />
      <path
         d="m 225.95451,943.77686 0,-20.95897 9.11259,-9.11259 18.22519,0 0,30.07156 -10.02385,0 0,-5.01193 -7.29008,0 0,5.01193 -10.02385,0 m 10.02385,-16.40267 0,1.36689 7.29008,0 0,-5.01193 -3.64504,0 -3.64504,3.64504"
         style="font-size:45.56295776px"
         id="path5604" />
      <path
         d="m 267.83684,913.7053 0,20.0477 7.29007,0 0,-5.01192 10.02385,0 0,15.03578 -27.33777,0 0,-30.07156 10.02385,0"
         style="font-size:45.56295776px"
         id="path5606" />
    </g>
    <g
       style="font-size:10.00001144px;font-style:normal;font-variant:normal;font-weight:normal;font-stretch:normal;line-height:125%;letter-spacing:0.23px;word-spacing:0px;fill:#000000;fill-opacity:1;stroke:none;font-family:Kremlin;-inkscape-font-specification:Kremlin"
       id="text5236">
      <path
         d="m 30.307402,956.68085 1.689455,0 0,-7.36818 -1.689455,0 0,7.36818"
         style=""
         id="path5519" />
      <path
         d="m 39.26788,949.31267 -1.689455,0 0,0.74219 -2.563479,2.58301 0,-3.3252 -1.689455,0 0,7.35841 1.689455,0 0,-1.41602 2.563479,-2.58301 0,3.99903 1.689455,0 0,-7.35841"
         style=""
         id="path5521" />
      <path
         d="m 40.479327,953.83416 4.252935,0 0,1.15235 -4.252935,-0.005 0,1.68945 5.94239,0 0,-4.52149 -4.252935,0 0,-1.14746 4.252935,0 -0.0098,-1.68946 -5.932624,0 0,4.52149"
         style=""
         id="path5523" />
      <path
         d="m 53.580436,949.31267 -5.94239,0 0,1.68946 4.252935,0 0,1.14746 -2.836917,0 0,1.68457 2.768557,0 0.0098,1.14747 -4.194341,0 0,1.68945 5.94239,0 0,-7.35841"
         style=""
         id="path5525" />
      <path
         d="m 60.739154,949.31267 -5.94239,0 0,4.52149 1.821292,0 -1.821292,1.82618 0,1.01074 1.689456,0 2.563479,-2.58301 0,2.58301 1.689455,0 0,-7.35841 m -1.689455,1.68946 0,1.14746 -2.563479,0 0,-1.14746 2.563479,0"
         style=""
         id="path5527" />
      <path
         d="m 61.93107,951.00213 2.163089,0 0,5.66895 1.684572,0 0,-5.66895 2.094729,0 0,-1.68946 -5.94239,0 0,1.68946"
         style=""
         id="path5529" />
      <path
         d="m 71.238737,956.67108 1.689455,0 0,-2.83692 4.252935,0 0,-4.52149 -5.94239,0 0,7.35841 m 4.252935,-5.66895 0,1.14746 -2.56348,0 0,-1.14746 2.56348,0"
         style=""
         id="path5531" />
      <path
         d="m 84.354493,949.31267 -5.942389,0 0,4.52149 1.821291,0 -1.821291,1.82618 0,1.01074 1.689455,0 2.563479,-2.58301 0,2.58301 1.689455,0 0,-7.35841 m -1.689455,1.68946 0,1.14746 -2.563479,0 0,-1.14746 2.563479,0"
         style=""
         id="path5533" />
      <path
         d="m 85.565939,956.67108 5.94239,0 0,-7.35841 -5.94239,0 0,7.35841 m 4.252935,-5.66895 0,3.9795 -2.558597,0 -0.0049,-3.9795 2.56348,0"
         style=""
         id="path5535" />
      <path
         d="m 92.724661,956.68085 5.947272,0 0,-1.68946 -4.257817,0 0,-5.67872 -1.689455,0 0,7.36818"
         style=""
         id="path5537" />
      <path
         d="m 105.83065,949.31267 -5.942392,0 0,1.68946 4.252932,0 0,1.14746 -2.83691,0 0,1.68457 2.76855,0 0.01,1.14747 -4.194342,0 0,1.68945 5.942392,0 0,-7.35841"
         style=""
         id="path5539" />
      <path
         d="m 107.03721,951.00213 2.16309,0 0,5.66895 1.68458,0 0,-5.66895 2.09472,0 0,-1.68946 -5.94239,0 0,1.68946"
         style=""
         id="path5541" />
      <path
         d="m 114.21547,956.67108 1.68945,0 0,-1.41602 2.56348,0 0,1.41602 1.68946,0 0,-7.35841 -5.94239,0 0,7.35841 m 4.25293,-5.66895 0,2.56348 -2.56348,0 0,-2.56348 2.56348,0"
         style=""
         id="path5543" />
      <path
         d="m 127.31657,949.31267 -5.94239,0 0,4.52149 1.82129,0 -1.82129,1.82618 0,1.01074 1.68946,0 2.56348,-2.58301 0,2.58301 1.68945,0 0,-7.35841 m -1.68945,1.68946 0,1.14746 -2.56348,0 0,-1.14746 2.56348,0"
         style=""
         id="path5545" />
      <path
         d="m 128.52314,956.68085 1.68945,0 0,-7.36818 -1.68945,0 0,7.36818"
         style=""
         id="path5547" />
      <path
         d="m 131.54611,956.67108 1.68946,0 0,-1.41602 2.56347,0 0,1.41602 1.68946,0 0,-7.35841 -5.94239,0 0,7.35841 m 4.25293,-5.66895 0,2.56348 -2.56347,0 0,-2.56348 2.56347,0"
         style=""
         id="path5549" />
      <path
         d="m 138.69506,951.00213 2.16309,0 0,5.66895 1.68457,0 0,-5.66895 2.09473,0 0,-1.68946 -5.94239,0 0,1.68946"
         style=""
         id="path5551" />
      <path
         d="m 145.90261,953.75604 2.92969,0 0,-1.46485 -2.92969,0 0,1.46485"
         style=""
         id="path5553" />
      <path
         d="m 150.1121,953.83416 4.25294,0 0,1.15235 -4.25294,-0.005 0,1.68945 5.94239,0 0,-4.52149 -4.25293,0 0,-1.14746 4.25293,0 -0.01,-1.68946 -5.93263,0 0,4.52149"
         style=""
         id="path5555" />
      <path
         d="m 161.53841,954.99139 -2.5586,0 0,-5.67872 -1.7041,0 0,7.36818 4.72657,-0.005 0,1.4209 1.68945,0 -0.005,-3.10547 -0.45899,0 0,-5.67872 -1.68457,0 -0.005,5.67872"
         style=""
         id="path5557" />
      <path
         d="m 164.45885,956.67108 1.68945,0 0,-2.83692 4.25293,0 0,-4.52149 -5.94238,0 0,7.35841 m 4.25293,-5.66895 0,1.14746 -2.56348,0 0,-1.14746 2.56348,0"
         style=""
         id="path5559" />
      <path
         d="m 171.62245,956.67108 1.68946,0 0,-2.83692 4.25293,0 0,-4.52149 -5.94239,0 0,7.35841 m 4.25293,-5.66895 0,1.14746 -2.56347,0 0,-1.14746 2.56347,0"
         style=""
         id="path5561" />
      <path
         d="m 178.80557,956.67108 5.94239,0 0,-7.35841 -5.94239,0 0,7.35841 m 4.25294,-5.66895 0,3.9795 -2.5586,0 -0.005,-3.9795 2.56348,0"
         style=""
         id="path5563" />
      <path
         d="m 191.9018,949.31267 -5.94239,0 0,4.52149 1.82129,0 -1.82129,1.82618 0,1.01074 1.68945,0 2.56348,-2.58301 0,2.58301 1.68946,0 0,-7.35841 m -1.68946,1.68946 0,1.14746 -2.56348,0 0,-1.14746 2.56348,0"
         style=""
         id="path5565" />
      <path
         d="m 193.09372,951.00213 2.16309,0 0,5.66895 1.68457,0 0,-5.66895 2.09473,0 0,-1.68946 -5.94239,0 0,1.68946"
         style=""
         id="path5567" />
      <path
         d="m 200.27197,956.68085 1.68946,0 0,-7.36818 -1.68946,0 0,7.36818"
         style=""
         id="path5569" />
      <path
         d="m 209.23244,949.31267 -1.68945,0 0,0.74219 -2.56348,2.58301 0,-3.3252 -1.68946,0 0,7.35841 1.68946,0 0,-1.41602 2.56348,-2.58301 0,3.99903 1.68945,0 0,-7.35841"
         style=""
         id="path5571" />
      <path
         d="m 210.43901,956.67108 5.94239,0 0,-4.52149 -1.68946,0 0,2.83204 -2.56348,0 0,-3.9795 4.25294,0 0,-1.68946 -5.94239,0 0,7.35841"
         style=""
         id="path5573" />
      <path
         d="m 219.71249,956.67108 1.68946,0 0,-3.91602 1.0791,1.0791 0.40527,0 1.07911,-1.0791 0,3.91602 1.68945,0 0,-7.35841 -1.0791,0 -1.875,1.87012 -1.88965,-1.87012 -1.09864,0 0,7.35841"
         style=""
         id="path5575" />
      <path
         d="m 226.89563,956.67108 5.94239,0 0,-7.35841 -5.94239,0 0,7.35841 m 4.25293,-5.66895 0,3.9795 -2.55859,0 -0.005,-3.9795 2.56348,0"
         style=""
         id="path5577" />
      <path
         d="m 234.0397,951.00213 2.16309,0 0,5.66895 1.68457,0 0,-5.66895 2.09473,0 0,-1.68946 -5.94239,0 0,1.68946"
         style=""
         id="path5579" />
      <path
         d="m 241.20331,951.00213 2.16308,0 0,5.66895 1.68458,0 0,-5.66895 2.09473,0 0,-1.68946 -5.94239,0 0,1.68946"
         style=""
         id="path5581" />
      <path
         d="m 248.38644,956.67108 5.94239,0 0,-7.35841 -5.94239,0 0,7.35841 m 4.25294,-5.66895 0,3.9795 -2.5586,0 -0.005,-3.9795 2.56348,0"
         style=""
         id="path5583" />
      <path
         d="m 257.68922,956.67108 1.69922,0 0,-2.85645 2.58301,0 0,2.85645 1.69922,0 0,-7.40723 -1.69922,0 0,2.85645 -2.58301,0 0,-2.85645 -1.69922,0 0,7.40723"
         style=""
         id="path5585" />
      <path
         d="m 270.79522,949.31267 -5.94239,0 0,1.68946 4.25293,0 0,1.14746 -2.83692,0 0,1.68457 2.76856,0 0.01,1.14747 -4.19434,0 0,1.68945 5.94239,0 0,-7.35841"
         style=""
         id="path5587" />
      <path
         d="m 277.95392,949.31267 -5.94239,0 0,4.52149 1.82129,0 -1.82129,1.82618 0,1.01074 1.68946,0 2.56348,-2.58301 0,2.58301 1.68945,0 0,-7.35841 m -1.68945,1.68946 0,1.14746 -2.56348,0 0,-1.14746 2.56348,0"
         style=""
         id="path5589" />
      <path
         d="m 285.10288,949.31267 -5.94239,0 0,1.68946 4.25293,0 0,1.14746 -2.83691,0 0,1.68457 2.76856,0 0.01,1.14747 -4.19434,0 0,1.68945 5.94239,0 0,-7.35841"
         style=""
         id="path5591" />
    </g>
    <g
       style="font-size:10px;font-style:normal;font-variant:normal;font-weight:normal;font-stretch:normal;line-height:125%;letter-spacing:0px;word-spacing:0px;fill:#000000;fill-opacity:1;stroke:none;font-family:Propaganda;-inkscape-font-specification:Propaganda"
       id="text5240"
       transform="translate(0,0.52102604)">
      <path
         d="m 169.46317,901.58573 0,2.2 1.6,0 0,-2.2 2.2,0 0,6.6 -2.2,0 0,-2.2 -1.6,0 0,2.2 -2.2,0 0,-6.6 2.2,0"
         id="path5482"
         inkscape:connector-curvature="0" />
      <path
         d="m 174.25536,903.78573 0,-2.2 6,0 0,2.2 -1.9,0 0,4.4 -2.2,0 0,-4.4 -1.9,0"
         id="path5484"
         inkscape:connector-curvature="0" />
      <path
         d="m 181.24754,903.78573 0,-2.2 6,0 0,2.2 -1.9,0 0,4.4 -2.2,0 0,-4.4 -1.9,0"
         id="path5486"
         inkscape:connector-curvature="0" />
      <path
         d="m 194.23973,907.08573 -3.8,0 0,1.1 -2.2,0 0,-6.6 4,0 2,2 0,3.5 m -2.2,-2.5 -0.8,-0.8 -0.8,0 0,1.1 1.6,0 0,-0.3"
         id="path5488"
         inkscape:connector-curvature="0" />
      <path
         d="m 197.43192,905.98573 0,2.2 -2.2,0 0,-2.2 2.2,0 m -2.2,-1.1 0,-2.2 2.2,0 0,2.2 -2.2,0"
         id="path5490"
         inkscape:connector-curvature="0" />
      <path
         d="m 202.23504,902.48573 0,-0.9 2.2,0 0,1.9 -3.8,3.8 0,0.9 -2.2,0 0,-1.9 3.8,-3.8"
         id="path5492"
         inkscape:connector-curvature="0" />
      <path
         d="m 209.22723,902.48573 0,-0.9 2.2,0 0,1.9 -3.8,3.8 0,0.9 -2.2,0 0,-1.9 3.8,-3.8"
         id="path5494"
         inkscape:connector-curvature="0" />
      <path
         d="m 214.61942,904.58573 0,1.4 3.8,0 0,2.2 -6,0 0,-4.6 2,-2 4,0 0,2.2 -3,0 -0.8,0.8"
         id="path5496"
         inkscape:connector-curvature="0" />
      <path
         d="m 225.41161,903.78573 -2.5,0 2.2,2.2 0.3,0 0,2.2 -6,0 0,-2.2 2.5,0 -2.2,-2.2 -0.3,0 0,-2.2 6,0 0,2.2"
         id="path5498"
         inkscape:connector-curvature="0" />
      <path
         d="m 228.60379,904.58573 0,1.4 3.8,0 0,2.2 -6,0 0,-4.6 2,-2 4,0 0,2.2 -3,0 -0.8,0.8"
         id="path5500"
         inkscape:connector-curvature="0" />
      <path
         d="m 233.39598,908.18573 0,-4.6 2,-2 4,0 0,6.6 -2.2,0 0,-1.1 -1.6,0 0,1.1 -2.2,0 m 2.2,-3.6 0,0.3 1.6,0 0,-1.1 -0.8,0 -0.8,0.8"
         id="path5502"
         inkscape:connector-curvature="0" />
      <path
         d="m 240.38817,908.18573 0,-6.6 6,0 0,2.5 -0.8,0.8 0.8,0.8 0,2.5 -6,0 m 2.2,-4.4 0,2.2 1.1,0 -1.1,-1.1 1.1,-1.1 -1.1,0"
         id="path5504"
         inkscape:connector-curvature="0" />
      <path
         d="m 247.38036,908.18573 0,-4.6 2,-2 4,0 0,6.6 -2.2,0 0,-1.1 -1.6,0 0,1.1 -2.2,0 m 2.2,-3.6 0,0.3 1.6,0 0,-1.1 -0.8,0 -0.8,0.8"
         id="path5506"
         inkscape:connector-curvature="0" />
      <path
         d="m 256.57254,901.58573 0,4.4 1.6,0 0,-1.1 2.2,0 0,3.3 -6,0 0,-6.6 2.2,0"
         id="path5508"
         inkscape:connector-curvature="0" />
      <path
         d="m 263.56473,905.98573 0,2.2 -2.2,0 0,-2.2 2.2,0"
         id="path5510"
         inkscape:connector-curvature="0" />
      <path
         d="m 266.76786,904.58573 0,1.4 3.8,0 0,2.2 -6,0 0,-4.6 2,-2 4,0 0,2.2 -3,0 -0.8,0.8"
         id="path5512"
         inkscape:connector-curvature="0" />
      <path
         d="m 271.56004,908.18573 0,-6.6 6,0 0,6.6 -6,0 m 2.2,-4.4 0,2.2 1.6,0 0,-2.2 -1.6,0"
         id="path5514"
         inkscape:connector-curvature="0" />
      <path
         d="m 280.75223,901.58573 0,0.8 1.1,1.1 1.1,-1.1 0,-0.8 2.2,0 0,6.6 -2.2,0 0,-2.6 -1.1,1.1 -1.1,-1.1 0,2.6 -2.2,0 0,-6.6 2.2,0"
         id="path5516"
         inkscape:connector-curvature="0" />
    </g>
  </g>
</svg>
