<?xml version="1.0" encoding="UTF-8" standalone="no"?>
<!-- Created with Inkscape (http://www.inkscape.org/) -->

<svg
   xmlns:dc="http://purl.org/dc/elements/1.1/"
   xmlns:cc="http://creativecommons.org/ns#"
   xmlns:rdf="http://www.w3.org/1999/02/22-rdf-syntax-ns#"
   xmlns:svg="http://www.w3.org/2000/svg"
   xmlns="http://www.w3.org/2000/svg"
   xmlns:sodipodi="http://sodipodi.sourceforge.net/DTD/sodipodi-0.dtd"
   xmlns:inkscape="http://www.inkscape.org/namespaces/inkscape"
   width="315"
   height="180"
   id="svg2"
   version="1.1"
   inkscape:version="0.48.4 r9939"
   sodipodi:docname="pixel-twist.svg">
  <defs
     id="defs4" />
  <sodipodi:namedview
     id="base"
     pagecolor="#ffffff"
     bordercolor="#666666"
     borderopacity="1.0"
     inkscape:pageopacity="0.0"
     inkscape:pageshadow="2"
     inkscape:zoom="2.7142857"
     inkscape:cx="129.42882"
     inkscape:cy="61.079997"
     inkscape:document-units="px"
     inkscape:current-layer="layer1"
     showgrid="true"
     inkscape:window-width="1364"
     inkscape:window-height="766"
     inkscape:window-x="0"
     inkscape:window-y="0"
     inkscape:window-maximized="0"
     units="in"
     gridtolerance="5"
     showguides="true"
     inkscape:guide-bbox="true">
    <sodipodi:guide
       orientation="1,0"
       position="30.219511,108.37342"
       id="guide3998" />
    <sodipodi:guide
       orientation="0,1"
       position="3.1261563,29.698485"
       id="guide4000" />
    <sodipodi:guide
       orientation="1,0"
       position="285.00125,136.50882"
       id="guide4002" />
    <sodipodi:guide
       orientation="0,1"
       position="48.976449,150.0555"
       id="guide4004" />
  </sodipodi:namedview>
  <metadata
     id="metadata7">
    <rdf:RDF>
      <cc:Work
         rdf:about="">
        <dc:format>image/svg+xml</dc:format>
        <dc:type
           rdf:resource="http://purl.org/dc/dcmitype/StillImage" />
        <dc:title></dc:title>
      </cc:Work>
    </rdf:RDF>
  </metadata>
  <g
     inkscape:label="Layer 1"
     inkscape:groupmode="layer"
     id="layer1"
     transform="translate(0,-872.35975)">
    <g
       style="font-size:36.8242569px;font-style:normal;font-weight:normal;line-height:125%;letter-spacing:0px;word-spacing:0px;fill:#000000;fill-opacity:1;stroke:none;font-family:Sans"
       id="text3024">
      <path
         d="m 103.14768,947.63007 0,29.45941 -29.459403,0 0,-29.45941 29.459403,0 m -8.543225,5.67094 -9.16924,0 0,3.27736 -3.240535,0 0,11.82058 3.240535,0 0,3.24054 9.16924,0 0,-3.24054 -9.16924,0 0,-11.82058 9.16924,0 0,-3.27736"
         style="font-variant:normal;font-stretch:normal;font-family:Pixel Twist;-inkscape-font-specification:Pixel Twist"
         id="path5801" />
      <path
         d="m 135.58467,947.63007 0,29.45941 -29.4594,0 0,-29.45941 29.4594,0 m -6.9966,15.35572 -3.24054,0 0,-3.24054 -9.16924,0 0,-3.05641 -3.27736,0 0,3.05641 3.05642,0 0,3.24054 9.39018,0 0,5.52364 -12.4466,0 0,3.27735 12.4466,0 0,-3.27735 3.24054,0 0,-5.52364 m 0,-9.53749 -12.40978,0 0,3.24054 12.40978,0 0,-3.24054"
         style="font-variant:normal;font-stretch:normal;font-family:Pixel Twist;-inkscape-font-specification:Pixel Twist"
         id="path5803" />
      <path
         d="m 167.94975,947.63007 0,29.45941 -29.45941,0 0,-29.45941 29.45941,0 m -8.54323,5.67094 -9.16924,0 0,3.27736 -3.24054,0 0,11.82058 3.24054,0 0,3.24054 9.16924,0 0,-3.24054 -9.16924,0 0,-11.82058 9.16924,0 0,-3.27736"
         style="font-variant:normal;font-stretch:normal;font-family:Pixel Twist;-inkscape-font-specification:Pixel Twist"
         id="path5805" />
      <path
         d="m 186.83542,956.39425 0,14.87699 -3.20372,0 0,-8.6537 -9.13241,0 0,8.6537 -3.20371,0 0,-14.87699 3.20371,0 0,3.01958 9.13241,0 0,-3.01958 3.20372,0 m -3.27736,0 -9.05877,0 0,-3.24054 9.05877,0 0,3.24054"
         style="font-variant:normal;font-stretch:normal;font-family:Pixel Twist;-inkscape-font-specification:Pixel Twist"
         id="path5807" />
      <path
         d="m 202.6123,959.41383 0,3.20371 3.20371,0 0,5.44999 -3.20371,0 0,-5.44999 -9.05876,0 0,5.44999 9.05876,0 0,3.20371 -9.05876,0 -0.36825,0 -2.83546,0 0,-18.11753 2.98276,0 0.22095,0 9.05876,0 0,3.24054 3.20371,0 0,3.01958 -3.20371,0 m 0,0 0,-3.01958 -9.05876,0 0,3.01958 9.05876,0"
         style="font-variant:normal;font-stretch:normal;font-family:Pixel Twist;-inkscape-font-specification:Pixel Twist"
         id="path5809" />
      <path
         d="m 225.31388,956.39425 0,14.87699 -3.20371,0 0,-8.6537 -9.13241,0 0,8.6537 -3.20371,0 0,-14.87699 3.20371,0 0,3.01958 9.13241,0 0,-3.01958 3.20371,0 m -3.27735,0 -9.05877,0 0,-3.24054 9.05877,0 0,3.24054"
         style="font-variant:normal;font-stretch:normal;font-family:Pixel Twist;-inkscape-font-specification:Pixel Twist"
         id="path5811" />
      <path
         d="m 241.31172,968.25166 0,3.24053 -9.13242,0 0,-3.05641 -3.20371,0 0,-15.06112 3.20371,0 0,14.877 9.13242,0"
         style="font-variant:normal;font-stretch:normal;font-family:Pixel Twist;-inkscape-font-specification:Pixel Twist"
         id="path5813" />
    </g>
    <g
       style="font-size:11.52369118px;font-style:normal;font-variant:normal;font-weight:normal;font-stretch:normal;line-height:125%;letter-spacing:0px;word-spacing:0px;fill:#000000;fill-opacity:1;stroke:none;font-family:Pixel Twist;-inkscape-font-specification:Pixel Twist"
       id="text4512">
      <path
         d="m 45.538312,980.54271 0,5.66965 -1.002561,0 0,-2.71959 -2.857875,0 0,2.71959 -1.002561,0 0,-5.66965 1.002561,0 0,1.9475 2.857875,0 0,-1.9475 1.002561,0"
         style="font-size:11.52369118px;font-style:normal;font-variant:normal;font-weight:normal;font-stretch:normal;fill:#b3b3b3;font-family:Pixel Twist;-inkscape-font-specification:Pixel Twist"
         id="path5764" />
      <path
         d="m 50.626922,981.56832 -1.486556,0 0,4.69014 -1.002561,0 0,-4.69014 -1.486556,0 0,-1.00257 3.975673,0 0,1.00257"
         style="font-size:11.52369118px;font-style:normal;font-variant:normal;font-weight:normal;font-stretch:normal;fill:#b3b3b3;font-family:Pixel Twist;-inkscape-font-specification:Pixel Twist"
         id="path5766" />
      <path
         d="m 55.713552,981.56832 -1.486557,0 0,4.69014 -1.002561,0 0,-4.69014 -1.486556,0 0,-1.00257 3.975674,0 0,1.00257"
         style="font-size:11.52369118px;font-style:normal;font-variant:normal;font-weight:normal;font-stretch:normal;fill:#b3b3b3;font-family:Pixel Twist;-inkscape-font-specification:Pixel Twist"
         id="path5768" />
      <path
         d="m 61.583792,981.61441 0,0.94494 -1.002562,0 0,1.00256 -2.834828,0 0,2.7196 -1.014084,0 0,-5.66966 0.944942,0 0.06914,0 2.834828,0 0,1.00256 1.002562,0 m -1.014085,0.94494 0,-0.94494 -2.823305,0 0,0.94494 2.823305,0"
         style="font-size:11.52369118px;font-style:normal;font-variant:normal;font-weight:normal;font-stretch:normal;fill:#b3b3b3;font-family:Pixel Twist;-inkscape-font-specification:Pixel Twist"
         id="path5770" />
      <path
         d="m 65.630734,984.40314 -0.921895,0 0,-1.01408 0.921895,0 0,1.01408 m 0,1.52113 -0.921895,0 0,-1.00256 0.921895,0 0,1.00256"
         style="letter-spacing:-2.49095178px"
         id="path5772" />
      <path
         d="m 69.259549,980.86537 -0.910372,0 0,-1.00256 0.910372,0 0,1.00256 m -0.910372,5.37004 -1.014085,0 0,-5.37004 1.014085,0 0,5.37004 m -1.014085,1.00256 -0.910372,0 0,-1.00256 0.910372,0 0,1.00256"
         style="letter-spacing:-2.49095178px"
         id="path5774" />
      <path
         d="m 72.942921,980.86537 -0.910372,0 0,-1.00256 0.910372,0 0,1.00256 m -0.910372,5.37004 -1.014084,0 0,-5.37004 1.014084,0 0,5.37004 m -1.014084,1.00256 -0.910372,0 0,-1.00256 0.910372,0 0,1.00256"
         style="letter-spacing:-2.49095178px"
         id="path5776" />
      <path
         d="m 82.872134,978.77958 0,9.21896 -9.218953,0 0,-9.21896 9.218953,0 m -2.673496,1.77465 -2.869399,0 0,1.02561 -1.014085,0 0,3.6991 1.014085,0 0,1.01409 2.869399,0 0,-1.01409 -2.869399,0 0,-3.6991 2.869399,0 0,-1.02561"
         style=""
         id="path5778" />
      <path
         d="m 93.022883,978.77958 0,9.21896 -9.218953,0 0,-9.21896 9.218953,0 m -2.189501,4.80538 -1.014085,0 0,-1.01408 -2.869399,0 0,-0.95647 -1.025608,0 0,0.95647 0.956466,0 0,1.01408 2.938541,0 0,1.72856 -3.895007,0 0,1.0256 3.895007,0 0,-1.0256 1.014085,0 0,-1.72856 m 0,-2.98463 -3.883484,0 0,1.01408 3.883484,0 0,-1.01408"
         style=""
         id="path5780" />
      <path
         d="m 103.15113,978.77958 0,9.21896 -9.218953,0 0,-9.21896 9.218953,0 m -2.6735,1.77465 -2.869396,0 0,1.02561 -1.014085,0 0,3.6991 1.014085,0 0,1.01409 2.869396,0 0,-1.01409 -2.869396,0 0,-3.6991 2.869396,0 0,-1.02561"
         style=""
         id="path5782" />
      <path
         d="m 109.06116,981.52222 0,4.65557 -1.00256,0 0,-2.70807 -2.85788,0 0,2.70807 -1.00256,0 0,-4.65557 1.00256,0 0,0.94494 2.85788,0 0,-0.94494 1.00256,0 m -1.02561,0 -2.83483,0 0,-1.01408 2.83483,0 0,1.01408"
         style=""
         id="path5784" />
      <path
         d="m 113.99835,982.46716 0,1.00256 1.00256,0 0,1.70551 -1.00256,0 0,-1.70551 -2.83483,0 0,1.70551 2.83483,0 0,1.00256 -2.83483,0 -0.11524,0 -0.88732,0 0,-5.66965 0.93342,0 0.0691,0 2.83483,0 0,1.01408 1.00256,0 0,0.94494 -1.00256,0 m 0,0 0,-0.94494 -2.83483,0 0,0.94494 2.83483,0"
         style=""
         id="path5786" />
      <path
         d="m 121.10252,981.52222 0,4.65557 -1.00256,0 0,-2.70807 -2.85788,0 0,2.70807 -1.00256,0 0,-4.65557 1.00256,0 0,0.94494 2.85788,0 0,-0.94494 1.00256,0 m -1.02561,0 -2.83483,0 0,-1.01408 2.83483,0 0,1.01408"
         style=""
         id="path5788" />
      <path
         d="m 126.10884,985.23285 0,1.01408 -2.85788,0 0,-0.95646 -1.00256,0 0,-4.71319 1.00256,0 0,4.65557 2.85788,0"
         style=""
         id="path5790" />
      <path
         d="m 128.13233,986.35065 -0.92189,0 0,-1.00256 0.92189,0 0,1.00256"
         style=""
         id="path5792" />
      <path
         d="m 130.23972,981.55679 0,3.66454 -1.00256,0 0,-3.66454 1.00256,0 m 0,4.6671 0,-1.00256 2.83483,0 0,1.00256 -2.83483,0 m 2.83483,-4.6671 -2.83483,0 0,-1.00256 2.83483,0 0,1.00256"
         style=""
         id="path5794" />
      <path
         d="m 139.02762,981.59136 0,3.65301 -1.01408,0 0,-3.65301 1.01408,0 m -3.86044,0 0,3.65301 -1.01408,0 0,-3.65301 1.01408,0 m 0,3.65301 2.84636,0 0,1.00256 -2.84636,0 0,-1.00256 m 2.84636,-3.65301 -2.84636,0 0,-1.00256 2.84636,0 0,1.00256"
         style=""
         id="path5796" />
      <path
         d="m 141.99857,981.61441 1.00257,0 0,4.6671 -1.00257,0 0,-4.6671 m 2.93855,0 0,4.6671 -1.00257,0 0,-4.6671 1.00257,0 m -4.863,0 1.00256,0 0,4.6671 -1.00256,0 0,-4.6671 m 2.92702,-1.00256 0.91037,0 0,1.00256 -0.91037,0 0,-1.00256 m -1.00257,0 0,1.00256 -0.92189,0 0,-1.00256 0.92189,0"
         style=""
         id="path5798" />
    </g>
    <g
       style="font-size:10px;font-style:normal;font-variant:normal;font-weight:normal;font-stretch:normal;line-height:125%;letter-spacing:0px;word-spacing:0px;fill:#b3b3b3;fill-opacity:1;stroke:none;font-family:Pixel Twist;-inkscape-font-specification:Pixel Twist"
       id="text5165">
      <path
         d="m 75.352864,991.40184 0,3.17 0.79,0 0,0.88 -2.46,0 0,-0.88 0.79,0 0,-3.17 -0.79,0 0,-0.87 2.46,0 0,0.87 -0.79,0"
         style=""
         id="path5707" />
      <path
         d="m 79.532239,994.58184 0.79,0 0,0.88 -0.79,0 0,-0.84 -0.88,0 0,-3.21 0.88,0 0,3.17 m 1.68,-4.04 0,4.04 -0.88,0 0,-4.04 0.88,0 m -4.23,0.87 0.88,0 0,4.05 -0.88,0 0,-4.05 m 1.67,-0.87 0,0.87 -0.79,0 0,-0.87 0.79,0"
         style=""
         id="path5709" />
      <path
         d="m 85.501771,993.06184 0.87,0 0,1.48 -0.87,0 0,0.88 -3.34,0 0,-0.88 3.34,0 0,-1.48 -2.53,0 0,-0.87 -0.81,0 0,-0.82 0.87,0 0,0.82 2.47,0 0,0.87 m 0.87,-2.56 0,0.87 -3.33,0 0,-0.87 3.33,0"
         style=""
         id="path5711" />
      <path
         d="m 88.264271,991.36184 0,0.82 2.46,0 0,0.88 -2.46,0 0,1.48 -0.88,0 0,-3.18 0.88,0 m 0,4.05 0,-0.87 2.46,0 0,0.87 -2.46,0 m 2.46,-4.05 -2.46,0 0,-0.87 2.46,0 0,0.87"
         style=""
         id="path5713" />
      <path
         d="m 94.992083,992.16184 0,0.88 0.87,0 0,2.37 -0.87,0 0,-2.37 -2.46,0 0,1.2 0,1.15 0,0.02 -0.87,0 0,-0.02 0,-1.15 0,-3.77 0.81,0 0.06,0 2.46,0 0,0.88 0.87,0 0,0.81 -0.87,0 m 0,-0.81 -2.46,0 0,0.81 2.46,0 0,-0.81"
         style=""
         id="path5715" />
      <path
         d="m 100.28786,991.37184 -1.289996,0 0,4.07 -0.87,0 0,-4.07 -1.29,0 0,-0.87 3.449996,0 0,0.87"
         style=""
         id="path5717" />
      <path
         d="m 109.52536,991.33184 0,4.04 -0.87,0 0,-2.35 -2.48,0 0,2.35 -0.87,0 0,-4.04 0.87,0 0,0.82 2.48,0 0,-0.82 0.87,0 m -0.89,0 -2.46,0 0,-0.88 2.46,0 0,0.88"
         style=""
         id="path5719" />
      <path
         d="m 112.96974,994.58184 0.79,0 0,0.88 -0.79,0 0,-0.84 -0.88,0 0,-3.21 0.88,0 0,3.17 m 1.68,-4.04 0,4.04 -0.88,0 0,-4.04 0.88,0 m -4.23,0.87 0.88,0 0,4.05 -0.88,0 0,-4.05 m 1.67,-0.87 0,0.87 -0.79,0 0,-0.87 0.79,0"
         style=""
         id="path5721" />
      <path
         d="m 123.80271,991.33184 0,4.04 -0.87,0 0,-2.35 -2.48,0 0,2.35 -0.87,0 0,-4.04 0.87,0 0,0.82 2.48,0 0,-0.82 0.87,0 m -0.89,0 -2.46,0 0,-0.88 2.46,0 0,0.88"
         style=""
         id="path5723" />
      <path
         d="m 128.91708,991.41184 0,0.82 -0.87,0 0,0.87 -2.46,0 0,2.36 -0.88,0 0,-4.92 0.82,0 0.06,0 2.46,0 0,0.87 0.87,0 m -0.88,0.82 0,-0.82 -2.45,0 0,0.82 2.45,0"
         style=""
         id="path5725" />
      <path
         d="m 133.91708,991.41184 0,0.82 -0.87,0 0,0.87 -2.46,0 0,2.36 -0.88,0 0,-4.92 0.82,0 0.06,0 2.46,0 0,0.87 0.87,0 m -0.88,0.82 0,-0.82 -2.45,0 0,0.82 2.45,0"
         style=""
         id="path5727" />
      <path
         d="m 138.11708,992.16184 0,0.88 0.87,0 0,2.37 -0.87,0 0,-2.37 -2.46,0 0,1.2 0,1.15 0,0.02 -0.87,0 0,-0.02 0,-1.15 0,-3.77 0.81,0 0.06,0 2.46,0 0,0.88 0.87,0 0,0.81 -0.87,0 m 0,-0.81 -2.46,0 0,0.81 2.46,0 0,-0.81"
         style=""
         id="path5729" />
      <path
         d="m 144.14286,991.39184 0,3.17 -0.88,0 0,-3.17 0.88,0 m -3.35,0 0,3.17 -0.88,0 0,-3.17 0.88,0 m 0,3.17 2.47,0 0,0.87 -2.47,0 0,-0.87 m 2.47,-3.17 -2.47,0 0,-0.87 2.47,0 0,0.87"
         style=""
         id="path5731" />
      <path
         d="m 149.17099,991.41184 0,0.82 -0.87,0 0,0.87 -2.46,0 0,2.36 -0.88,0 0,-4.92 0.82,0 0.06,0 2.46,0 0,0.87 0.87,0 m -0.88,0.82 0,-0.82 -2.45,0 0,0.82 2.45,0"
         style=""
         id="path5733" />
      <path
         d="m 153.37099,992.16184 0,0.88 0.87,0 0,2.37 -0.87,0 0,-2.37 -2.46,0 0,1.2 0,1.15 0,0.02 -0.87,0 0,-0.02 0,-1.15 0,-3.77 0.81,0 0.06,0 2.46,0 0,0.88 0.87,0 0,0.81 -0.87,0 m 0,-0.81 -2.46,0 0,0.81 2.46,0 0,-0.81"
         style=""
         id="path5735" />
      <path
         d="m 156.85677,991.40184 0,3.17 0.79,0 0,0.88 -2.46,0 0,-0.88 0.79,0 0,-3.17 -0.79,0 0,-0.87 2.46,0 0,0.87 -0.79,0"
         style=""
         id="path5737" />
      <path
         d="m 162.82615,991.33184 0,4.04 -0.87,0 0,-2.35 -2.48,0 0,2.35 -0.87,0 0,-4.04 0.87,0 0,0.82 2.48,0 0,-0.82 0.87,0 m -0.89,0 -2.46,0 0,-0.88 2.46,0 0,0.88"
         style=""
         id="path5739" />
      <path
         d="m 167.26052,991.37184 -1.29,0 0,4.07 -0.87,0 0,-4.07 -1.29,0 0,-0.87 3.45,0 0,0.87"
         style=""
         id="path5741" />
      <path
         d="m 169.08458,991.36184 0,0.82 2.46,0 0,0.88 -2.46,0 0,1.48 -0.88,0 0,-3.18 0.88,0 m 0,4.05 0,-0.87 2.46,0 0,0.87 -2.46,0 m 2.46,-4.05 -2.46,0 0,-0.87 2.46,0 0,0.87"
         style=""
         id="path5743" />
      <path
         d="m 178.18583,991.41184 0.87,0 0,4.05 -0.87,0 0,-4.05 m 2.55,0 0,4.05 -0.87,0 0,-4.05 0.87,0 m -4.22,0 0.87,0 0,4.05 -0.87,0 0,-4.05 m 2.54,-0.87 0.79,0 0,0.87 -0.79,0 0,-0.87 m -0.87,0 0,0.87 -0.8,0 0,-0.87 0.8,0"
         style=""
         id="path5745" />
      <path
         d="m 185.88115,991.39184 0,3.17 -0.88,0 0,-3.17 0.88,0 m -3.35,0 0,3.17 -0.88,0 0,-3.17 0.88,0 m 0,3.17 2.47,0 0,0.87 -2.47,0 0,-0.87 m 2.47,-3.17 -2.47,0 0,-0.87 2.47,0 0,0.87"
         style=""
         id="path5747" />
      <path
         d="m 190.22927,991.37184 -1.29,0 0,4.07 -0.87,0 0,-4.07 -1.29,0 0,-0.87 3.45,0 0,0.87"
         style=""
         id="path5749" />
      <path
         d="m 194.64333,991.37184 -1.29,0 0,4.07 -0.87,0 0,-4.07 -1.29,0 0,-0.87 3.45,0 0,0.87"
         style=""
         id="path5751" />
      <path
         d="m 199.7874,991.39184 0,3.17 -0.88,0 0,-3.17 0.88,0 m -3.35,0 0,3.17 -0.88,0 0,-3.17 0.88,0 m 0,3.17 2.47,0 0,0.87 -2.47,0 0,-0.87 m 2.47,-3.17 -2.47,0 0,-0.87 2.47,0 0,0.87"
         style=""
         id="path5753" />
      <path
         d="m 212.63896,988.95184 0,8 -8,0 0,-8 8,0 m -1.87,1.55 -0.88,0 0,1.72 -2.51,0 0,-1.72 -0.88,0 0,4.98 0.88,0 0,-2.38 2.51,0 0,2.38 0.88,0 0,-4.98"
         style=""
         id="path5755" />
      <path
         d="m 221.44755,988.95184 0,8 -8,0 0,-8 8,0 m -2.39,1.55 -2.49,0 0,0.88 -0.89,0 0,3.21 0.89,0 0,0.88 2.49,0 0,-0.88 -2.49,0 0,-1.5 2.49,0 0,-0.88 -2.49,0 0,-0.83 2.49,0 0,-0.88"
         style=""
         id="path5757" />
      <path
         d="m 224.98661,991.41184 2.49,0 0,0.83 -2.49,0 0,-0.83 m 5.25,-2.46 0,8 -8,0 0,-8 8,0 m -1.88,2.46 -0.88,0 0,-0.88 -2.49,0 -0.06,0 -0.82,0 0,4.98 0.88,0 0,-2.39 2.49,0 0,2.41 0.88,0 0,-2.41 -0.88,0 0,-0.88 0.88,0 0,-0.83"
         style=""
         id="path5759" />
      <path
         d="m 239.02568,988.95184 0,8 -8,0 0,-8 8,0 m -2.39,1.55 -2.49,0 0,0.88 -0.89,0 0,3.21 0.89,0 0,0.88 2.49,0 0,-0.88 -2.49,0 0,-1.5 2.49,0 0,-0.88 -2.49,0 0,-0.83 2.49,0 0,-0.88"
         style=""
         id="path5761" />
    </g>
  </g>
</svg>
