<?xml version="1.0" encoding="UTF-8" standalone="no"?>
<!-- Created with Inkscape (http://www.inkscape.org/) -->

<svg
   xmlns:dc="http://purl.org/dc/elements/1.1/"
   xmlns:cc="http://creativecommons.org/ns#"
   xmlns:rdf="http://www.w3.org/1999/02/22-rdf-syntax-ns#"
   xmlns:svg="http://www.w3.org/2000/svg"
   xmlns="http://www.w3.org/2000/svg"
   xmlns:sodipodi="http://sodipodi.sourceforge.net/DTD/sodipodi-0.dtd"
   xmlns:inkscape="http://www.inkscape.org/namespaces/inkscape"
   width="315"
   height="180"
   id="svg2"
   version="1.1"
   inkscape:version="0.48.4 r9939"
   sodipodi:docname="pixel-twist-02.svg">
  <defs
     id="defs4" />
  <sodipodi:namedview
     id="base"
     pagecolor="#ffffff"
     bordercolor="#666666"
     borderopacity="1.0"
     inkscape:pageopacity="0.0"
     inkscape:pageshadow="2"
     inkscape:zoom="1.9192898"
     inkscape:cx="163.50119"
     inkscape:cy="77.113016"
     inkscape:document-units="px"
     inkscape:current-layer="layer1"
     showgrid="true"
     inkscape:window-width="1364"
     inkscape:window-height="766"
     inkscape:window-x="0"
     inkscape:window-y="0"
     inkscape:window-maximized="0"
     units="in"
     gridtolerance="5"
     showguides="true"
     inkscape:guide-bbox="true">
    <sodipodi:guide
       orientation="1,0"
       position="30.219511,108.37342"
       id="guide3998" />
    <sodipodi:guide
       orientation="0,1"
       position="3.1261563,29.698485"
       id="guide4000" />
    <sodipodi:guide
       orientation="1,0"
       position="285.00125,136.50882"
       id="guide4002" />
    <sodipodi:guide
       orientation="0,1"
       position="48.976449,150.0555"
       id="guide4004" />
  </sodipodi:namedview>
  <metadata
     id="metadata7">
    <rdf:RDF>
      <cc:Work
         rdf:about="">
        <dc:format>image/svg+xml</dc:format>
        <dc:type
           rdf:resource="http://purl.org/dc/dcmitype/StillImage" />
        <dc:title></dc:title>
      </cc:Work>
    </rdf:RDF>
  </metadata>
  <g
     inkscape:label="Layer 1"
     inkscape:groupmode="layer"
     id="layer1"
     transform="translate(0,-872.35975)">
    <g
       style="font-size:36.8242569px;font-style:normal;font-weight:normal;line-height:125%;letter-spacing:0px;word-spacing:0px;fill:#000000;fill-opacity:1;stroke:none;font-family:Sans"
       id="text3024">
      <path
         d="m 59.831888,902.36689 0,29.4594 -29.459405,0 0,-29.4594 29.459405,0 m -8.543227,5.67093 -9.16924,0 0,3.27736 -3.240535,0 0,11.82059 3.240535,0 0,3.24053 9.16924,0 0,-3.24053 -9.16924,0 0,-11.82059 9.16924,0 0,-3.27736"
         style="font-variant:normal;font-stretch:normal;font-family:Pixel Twist;-inkscape-font-specification:Pixel Twist"
         id="path6068" />
      <path
         d="m 92.268881,902.36689 0,29.4594 -29.459406,0 0,-29.4594 29.459406,0 m -6.996609,15.35571 -3.240535,0 0,-3.24053 -9.16924,0 0,-3.05641 -3.277358,0 0,3.05641 3.056413,0 0,3.24053 9.390185,0 0,5.52364 -12.446598,0 0,3.27736 12.446598,0 0,-3.27736 3.240535,0 0,-5.52364 m 0,-9.53748 -12.409775,0 0,3.24054 12.409775,0 0,-3.24054"
         style="font-variant:normal;font-stretch:normal;font-family:Pixel Twist;-inkscape-font-specification:Pixel Twist"
         id="path6070" />
      <path
         d="m 124.63395,902.36689 0,29.4594 -29.459404,0 0,-29.4594 29.459404,0 m -8.54323,5.67093 -9.16924,0 0,3.27736 -3.24053,0 0,11.82059 3.24053,0 0,3.24053 9.16924,0 0,-3.24053 -9.16924,0 0,-11.82059 9.16924,0 0,-3.27736"
         style="font-variant:normal;font-stretch:normal;font-family:Pixel Twist;-inkscape-font-specification:Pixel Twist"
         id="path6072" />
      <path
         d="m 143.51962,911.13106 0,14.877 -3.20371,0 0,-8.6537 -9.13242,0 0,8.6537 -3.20371,0 0,-14.877 3.20371,0 0,3.01959 9.13242,0 0,-3.01959 3.20371,0 m -3.27736,0 -9.05877,0 0,-3.24053 9.05877,0 0,3.24053"
         style="font-variant:normal;font-stretch:normal;font-family:Pixel Twist;-inkscape-font-specification:Pixel Twist"
         id="path6074" />
      <path
         d="m 159.29651,914.15065 0,3.20371 3.20371,0 0,5.44999 -3.20371,0 0,-5.44999 -9.05877,0 0,5.44999 9.05877,0 0,3.20371 -9.05877,0 -0.36824,0 -2.83547,0 0,-18.11753 2.98277,0 0.22094,0 9.05877,0 0,3.24053 3.20371,0 0,3.01959 -3.20371,0 m 0,0 0,-3.01959 -9.05877,0 0,3.01959 9.05877,0"
         style="font-variant:normal;font-stretch:normal;font-family:Pixel Twist;-inkscape-font-specification:Pixel Twist"
         id="path6076" />
      <path
         d="m 181.99809,911.13106 0,14.877 -3.20371,0 0,-8.6537 -9.13242,0 0,8.6537 -3.20371,0 0,-14.877 3.20371,0 0,3.01959 9.13242,0 0,-3.01959 3.20371,0 m -3.27736,0 -9.05877,0 0,-3.24053 9.05877,0 0,3.24053"
         style="font-variant:normal;font-stretch:normal;font-family:Pixel Twist;-inkscape-font-specification:Pixel Twist"
         id="path6078" />
      <path
         d="m 197.99592,922.98847 0,3.24054 -9.13241,0 0,-3.05642 -3.20371,0 0,-15.06112 3.20371,0 0,14.877 9.13241,0"
         style="font-variant:normal;font-stretch:normal;font-family:Pixel Twist;-inkscape-font-specification:Pixel Twist"
         id="path6080" />
    </g>
    <g
       style="font-size:11.52369118px;font-style:normal;font-variant:normal;font-weight:normal;font-stretch:normal;line-height:125%;letter-spacing:0px;word-spacing:0px;fill:#000000;fill-opacity:1;stroke:none;font-family:Pixel Twist;-inkscape-font-specification:Pixel Twist"
       id="text4512">
      <path
         d="m 67.327791,967.91087 0,5.66966 -1.002561,0 0,-2.71959 -2.857876,0 0,2.71959 -1.002561,0 0,-5.66966 1.002561,0 0,1.9475 2.857876,0 0,-1.9475 1.002561,0"
         style="font-size:11.52369118px;font-style:normal;font-variant:normal;font-weight:normal;font-stretch:normal;fill:#b3b3b3;font-family:Pixel Twist;-inkscape-font-specification:Pixel Twist"
         id="path6031" />
      <path
         d="m 72.416401,968.93648 -1.486557,0 0,4.69014 -1.002561,0 0,-4.69014 -1.486556,0 0,-1.00256 3.975674,0 0,1.00256"
         style="font-size:11.52369118px;font-style:normal;font-variant:normal;font-weight:normal;font-stretch:normal;fill:#b3b3b3;font-family:Pixel Twist;-inkscape-font-specification:Pixel Twist"
         id="path6033" />
      <path
         d="m 77.50303,968.93648 -1.486556,0 0,4.69014 -1.002561,0 0,-4.69014 -1.486557,0 0,-1.00256 3.975674,0 0,1.00256"
         style="font-size:11.52369118px;font-style:normal;font-variant:normal;font-weight:normal;font-stretch:normal;fill:#b3b3b3;font-family:Pixel Twist;-inkscape-font-specification:Pixel Twist"
         id="path6035" />
      <path
         d="m 83.37327,968.98257 0,0.94495 -1.002561,0 0,1.00256 -2.834828,0 0,2.71959 -1.014085,0 0,-5.66966 0.944943,0 0.06914,0 2.834828,0 0,1.00256 1.002561,0 m -1.014085,0.94495 0,-0.94495 -2.823304,0 0,0.94495 2.823304,0"
         style="font-size:11.52369118px;font-style:normal;font-variant:normal;font-weight:normal;font-stretch:normal;fill:#b3b3b3;font-family:Pixel Twist;-inkscape-font-specification:Pixel Twist"
         id="path6037" />
      <path
         d="m 87.420212,971.77131 -0.921895,0 0,-1.01409 0.921895,0 0,1.01409 m 0,1.52112 -0.921895,0 0,-1.00256 0.921895,0 0,1.00256"
         style="letter-spacing:-2.49095178px"
         id="path6039" />
      <path
         d="m 91.049027,968.23353 -0.910372,0 0,-1.00256 0.910372,0 0,1.00256 m -0.910372,5.37004 -1.014085,0 0,-5.37004 1.014085,0 0,5.37004 m -1.014085,1.00257 -0.910371,0 0,-1.00257 0.910371,0 0,1.00257"
         style="letter-spacing:-2.49095178px"
         id="path6041" />
      <path
         d="m 94.732399,968.23353 -0.910371,0 0,-1.00256 0.910371,0 0,1.00256 m -0.910371,5.37004 -1.014085,0 0,-5.37004 1.014085,0 0,5.37004 m -1.014085,1.00257 -0.910372,0 0,-1.00257 0.910372,0 0,1.00257"
         style="letter-spacing:-2.49095178px"
         id="path6043" />
      <path
         d="m 104.66161,966.14775 0,9.21895 -9.218951,0 0,-9.21895 9.218951,0 m -2.67349,1.77464 -2.869403,0 0,1.02561 -1.014085,0 0,3.69911 1.014085,0 0,1.01408 2.869403,0 0,-1.01408 -2.869403,0 0,-3.69911 2.869403,0 0,-1.02561"
         style=""
         id="path6045" />
      <path
         d="m 114.81236,966.14775 0,9.21895 -9.21895,0 0,-9.21895 9.21895,0 m -2.1895,4.80538 -1.01408,0 0,-1.01409 -2.8694,0 0,-0.95647 -1.02561,0 0,0.95647 0.95646,0 0,1.01409 2.93855,0 0,1.72855 -3.89501,0 0,1.02561 3.89501,0 0,-1.02561 1.01408,0 0,-1.72855 m 0,-2.98464 -3.88348,0 0,1.01408 3.88348,0 0,-1.01408"
         style=""
         id="path6047" />
      <path
         d="m 124.94061,966.14775 0,9.21895 -9.21896,0 0,-9.21895 9.21896,0 m -2.6735,1.77464 -2.8694,0 0,1.02561 -1.01408,0 0,3.69911 1.01408,0 0,1.01408 2.8694,0 0,-1.01408 -2.8694,0 0,-3.69911 2.8694,0 0,-1.02561"
         style=""
         id="path6049" />
      <path
         d="m 130.85064,968.89038 0,4.65558 -1.00256,0 0,-2.70807 -2.85788,0 0,2.70807 -1.00256,0 0,-4.65558 1.00256,0 0,0.94495 2.85788,0 0,-0.94495 1.00256,0 m -1.02561,0 -2.83483,0 0,-1.01408 2.83483,0 0,1.01408"
         style=""
         id="path6051" />
      <path
         d="m 135.78782,969.83533 0,1.00256 1.00257,0 0,1.7055 -1.00257,0 0,-1.7055 -2.83482,0 0,1.7055 2.83482,0 0,1.00257 -2.83482,0 -0.11524,0 -0.88732,0 0,-5.66966 0.93341,0 0.0692,0 2.83482,0 0,1.01408 1.00257,0 0,0.94495 -1.00257,0 m 0,0 0,-0.94495 -2.83482,0 0,0.94495 2.83482,0"
         style=""
         id="path6053" />
      <path
         d="m 142.892,968.89038 0,4.65558 -1.00256,0 0,-2.70807 -2.85788,0 0,2.70807 -1.00256,0 0,-4.65558 1.00256,0 0,0.94495 2.85788,0 0,-0.94495 1.00256,0 m -1.02561,0 -2.83483,0 0,-1.01408 2.83483,0 0,1.01408"
         style=""
         id="path6055" />
      <path
         d="m 147.89832,972.60101 0,1.01409 -2.85788,0 0,-0.95647 -1.00256,0 0,-4.71319 1.00256,0 0,4.65557 2.85788,0"
         style=""
         id="path6057" />
      <path
         d="m 149.92181,973.71881 -0.92189,0 0,-1.00256 0.92189,0 0,1.00256"
         style=""
         id="path6059" />
      <path
         d="m 152.0292,968.92496 0,3.66453 -1.00256,0 0,-3.66453 1.00256,0 m 0,4.66709 0,-1.00256 2.83483,0 0,1.00256 -2.83483,0 m 2.83483,-4.66709 -2.83483,0 0,-1.00257 2.83483,0 0,1.00257"
         style=""
         id="path6061" />
      <path
         d="m 160.8171,968.95953 0,3.65301 -1.01409,0 0,-3.65301 1.01409,0 m -3.86044,0 0,3.65301 -1.01408,0 0,-3.65301 1.01408,0 m 0,3.65301 2.84635,0 0,1.00256 -2.84635,0 0,-1.00256 m 2.84635,-3.65301 -2.84635,0 0,-1.00256 2.84635,0 0,1.00256"
         style=""
         id="path6063" />
      <path
         d="m 163.78805,968.98257 1.00256,0 0,4.6671 -1.00256,0 0,-4.6671 m 2.93854,0 0,4.6671 -1.00256,0 0,-4.6671 1.00256,0 m -4.86299,0 1.00256,0 0,4.6671 -1.00256,0 0,-4.6671 m 2.92701,-1.00256 0.91037,0 0,1.00256 -0.91037,0 0,-1.00256 m -1.00256,0 0,1.00256 -0.92189,0 0,-1.00256 0.92189,0"
         style=""
         id="path6065" />
    </g>
    <g
       style="font-size:10px;font-style:normal;font-variant:normal;font-weight:normal;font-stretch:normal;line-height:125%;letter-spacing:0px;word-spacing:0px;fill:#b3b3b3;fill-opacity:1;stroke:none;font-family:Pixel Twist;-inkscape-font-specification:Pixel Twist"
       id="text5165">
      <path
         d="m 97.142316,978.76995 0,3.17 0.79,0 0,0.88 -2.46,0 0,-0.88 0.79,0 0,-3.17 -0.79,0 0,-0.87 2.46,0 0,0.87 -0.79,0"
         style=""
         id="path5974" />
      <path
         d="m 101.32169,981.94995 0.79,0 0,0.88 -0.79,0 0,-0.84 -0.88,0 0,-3.21 0.88,0 0,3.17 m 1.68,-4.04 0,4.04 -0.88,0 0,-4.04 0.88,0 m -4.229999,0.87 0.88,0 0,4.05 -0.88,0 0,-4.05 m 1.669999,-0.87 0,0.87 -0.789999,0 0,-0.87 0.789999,0"
         style=""
         id="path5976" />
      <path
         d="m 107.29122,980.42995 0.87,0 0,1.48 -0.87,0 0,0.88 -3.34,0 0,-0.88 3.34,0 0,-1.48 -2.53,0 0,-0.87 -0.81,0 0,-0.82 0.87,0 0,0.82 2.47,0 0,0.87 m 0.87,-2.56 0,0.87 -3.33,0 0,-0.87 3.33,0"
         style=""
         id="path5978" />
      <path
         d="m 110.05372,978.72995 0,0.82 2.46,0 0,0.88 -2.46,0 0,1.48 -0.88,0 0,-3.18 0.88,0 m 0,4.05 0,-0.87 2.46,0 0,0.87 -2.46,0 m 2.46,-4.05 -2.46,0 0,-0.87 2.46,0 0,0.87"
         style=""
         id="path5980" />
      <path
         d="m 116.78153,979.52995 0,0.88 0.87,0 0,2.37 -0.87,0 0,-2.37 -2.46,0 0,1.2 0,1.15 0,0.02 -0.87,0 0,-0.02 0,-1.15 0,-3.77 0.81,0 0.06,0 2.46,0 0,0.88 0.87,0 0,0.81 -0.87,0 m 0,-0.81 -2.46,0 0,0.81 2.46,0 0,-0.81"
         style=""
         id="path5982" />
      <path
         d="m 122.07732,978.73995 -1.29,0 0,4.07 -0.87,0 0,-4.07 -1.29,0 0,-0.87 3.45,0 0,0.87"
         style=""
         id="path5984" />
      <path
         d="m 131.31482,978.69995 0,4.04 -0.87,0 0,-2.35 -2.48,0 0,2.35 -0.87,0 0,-4.04 0.87,0 0,0.82 2.48,0 0,-0.82 0.87,0 m -0.89,0 -2.46,0 0,-0.88 2.46,0 0,0.88"
         style=""
         id="path5986" />
      <path
         d="m 134.75919,981.94995 0.79,0 0,0.88 -0.79,0 0,-0.84 -0.88,0 0,-3.21 0.88,0 0,3.17 m 1.68,-4.04 0,4.04 -0.88,0 0,-4.04 0.88,0 m -4.23,0.87 0.88,0 0,4.05 -0.88,0 0,-4.05 m 1.67,-0.87 0,0.87 -0.79,0 0,-0.87 0.79,0"
         style=""
         id="path5988" />
      <path
         d="m 145.59216,978.69995 0,4.04 -0.87,0 0,-2.35 -2.48,0 0,2.35 -0.87,0 0,-4.04 0.87,0 0,0.82 2.48,0 0,-0.82 0.87,0 m -0.89,0 -2.46,0 0,-0.88 2.46,0 0,0.88"
         style=""
         id="path5990" />
      <path
         d="m 150.70653,978.77995 0,0.82 -0.87,0 0,0.87 -2.46,0 0,2.36 -0.88,0 0,-4.92 0.82,0 0.06,0 2.46,0 0,0.87 0.87,0 m -0.88,0.82 0,-0.82 -2.45,0 0,0.82 2.45,0"
         style=""
         id="path5992" />
      <path
         d="m 155.70653,978.77995 0,0.82 -0.87,0 0,0.87 -2.46,0 0,2.36 -0.88,0 0,-4.92 0.82,0 0.06,0 2.46,0 0,0.87 0.87,0 m -0.88,0.82 0,-0.82 -2.45,0 0,0.82 2.45,0"
         style=""
         id="path5994" />
      <path
         d="m 159.90653,979.52995 0,0.88 0.87,0 0,2.37 -0.87,0 0,-2.37 -2.46,0 0,1.2 0,1.15 0,0.02 -0.87,0 0,-0.02 0,-1.15 0,-3.77 0.81,0 0.06,0 2.46,0 0,0.88 0.87,0 0,0.81 -0.87,0 m 0,-0.81 -2.46,0 0,0.81 2.46,0 0,-0.81"
         style=""
         id="path5996" />
      <path
         d="m 165.93232,978.75995 0,3.17 -0.88,0 0,-3.17 0.88,0 m -3.35,0 0,3.17 -0.88,0 0,-3.17 0.88,0 m 0,3.17 2.47,0 0,0.87 -2.47,0 0,-0.87 m 2.47,-3.17 -2.47,0 0,-0.87 2.47,0 0,0.87"
         style=""
         id="path5998" />
      <path
         d="m 170.96044,978.77995 0,0.82 -0.87,0 0,0.87 -2.46,0 0,2.36 -0.88,0 0,-4.92 0.82,0 0.06,0 2.46,0 0,0.87 0.87,0 m -0.88,0.82 0,-0.82 -2.45,0 0,0.82 2.45,0"
         style=""
         id="path6000" />
      <path
         d="m 175.16044,979.52995 0,0.88 0.87,0 0,2.37 -0.87,0 0,-2.37 -2.46,0 0,1.2 0,1.15 0,0.02 -0.87,0 0,-0.02 0,-1.15 0,-3.77 0.81,0 0.06,0 2.46,0 0,0.88 0.87,0 0,0.81 -0.87,0 m 0,-0.81 -2.46,0 0,0.81 2.46,0 0,-0.81"
         style=""
         id="path6002" />
      <path
         d="m 178.64622,978.76995 0,3.17 0.79,0 0,0.88 -2.46,0 0,-0.88 0.79,0 0,-3.17 -0.79,0 0,-0.87 2.46,0 0,0.87 -0.79,0"
         style=""
         id="path6004" />
      <path
         d="m 184.6156,978.69995 0,4.04 -0.87,0 0,-2.35 -2.48,0 0,2.35 -0.87,0 0,-4.04 0.87,0 0,0.82 2.48,0 0,-0.82 0.87,0 m -0.89,0 -2.46,0 0,-0.88 2.46,0 0,0.88"
         style=""
         id="path6006" />
      <path
         d="m 189.04997,978.73995 -1.29,0 0,4.07 -0.87,0 0,-4.07 -1.29,0 0,-0.87 3.45,0 0,0.87"
         style=""
         id="path6008" />
      <path
         d="m 190.87403,978.72995 0,0.82 2.46,0 0,0.88 -2.46,0 0,1.48 -0.88,0 0,-3.18 0.88,0 m 0,4.05 0,-0.87 2.46,0 0,0.87 -2.46,0 m 2.46,-4.05 -2.46,0 0,-0.87 2.46,0 0,0.87"
         style=""
         id="path6010" />
      <path
         d="m 199.97528,978.77995 0.87,0 0,4.05 -0.87,0 0,-4.05 m 2.55,0 0,4.05 -0.87,0 0,-4.05 0.87,0 m -4.22,0 0.87,0 0,4.05 -0.87,0 0,-4.05 m 2.54,-0.87 0.79,0 0,0.87 -0.79,0 0,-0.87 m -0.87,0 0,0.87 -0.8,0 0,-0.87 0.8,0"
         style=""
         id="path6012" />
      <path
         d="m 207.6706,978.75995 0,3.17 -0.88,0 0,-3.17 0.88,0 m -3.35,0 0,3.17 -0.88,0 0,-3.17 0.88,0 m 0,3.17 2.47,0 0,0.87 -2.47,0 0,-0.87 m 2.47,-3.17 -2.47,0 0,-0.87 2.47,0 0,0.87"
         style=""
         id="path6014" />
      <path
         d="m 212.01872,978.73995 -1.29,0 0,4.07 -0.87,0 0,-4.07 -1.29,0 0,-0.87 3.45,0 0,0.87"
         style=""
         id="path6016" />
      <path
         d="m 216.43278,978.73995 -1.29,0 0,4.07 -0.87,0 0,-4.07 -1.29,0 0,-0.87 3.45,0 0,0.87"
         style=""
         id="path6018" />
      <path
         d="m 221.57685,978.75995 0,3.17 -0.88,0 0,-3.17 0.88,0 m -3.35,0 0,3.17 -0.88,0 0,-3.17 0.88,0 m 0,3.17 2.47,0 0,0.87 -2.47,0 0,-0.87 m 2.47,-3.17 -2.47,0 0,-0.87 2.47,0 0,0.87"
         style=""
         id="path6020" />
      <path
         d="m 234.42841,976.31995 0,8 -8,0 0,-8 8,0 m -1.87,1.55 -0.88,0 0,1.72 -2.51,0 0,-1.72 -0.88,0 0,4.98 0.88,0 0,-2.38 2.51,0 0,2.38 0.88,0 0,-4.98"
         style=""
         id="path6022" />
      <path
         d="m 243.237,976.31995 0,8 -8,0 0,-8 8,0 m -2.39,1.55 -2.49,0 0,0.88 -0.89,0 0,3.21 0.89,0 0,0.88 2.49,0 0,-0.88 -2.49,0 0,-1.5 2.49,0 0,-0.88 -2.49,0 0,-0.83 2.49,0 0,-0.88"
         style=""
         id="path6024" />
      <path
         d="m 246.77607,978.77995 2.49,0 0,0.83 -2.49,0 0,-0.83 m 5.25,-2.46 0,8 -8,0 0,-8 8,0 m -1.88,2.46 -0.88,0 0,-0.88 -2.49,0 -0.06,0 -0.82,0 0,4.98 0.88,0 0,-2.39 2.49,0 0,2.41 0.88,0 0,-2.41 -0.88,0 0,-0.88 0.88,0 0,-0.83"
         style=""
         id="path6026" />
      <path
         d="m 260.81513,976.31995 0,8 -8,0 0,-8 8,0 m -2.39,1.55 -2.49,0 0,0.88 -0.89,0 0,3.21 0.89,0 0,0.88 2.49,0 0,-0.88 -2.49,0 0,-1.5 2.49,0 0,-0.88 -2.49,0 0,-0.83 2.49,0 0,-0.88"
         style=""
         id="path6028" />
    </g>
    <g
       style="font-size:36.8242569px;font-style:normal;font-weight:normal;line-height:125%;letter-spacing:0px;word-spacing:0px;fill:#000000;fill-opacity:1;stroke:none;font-family:Sans"
       id="text5188">
      <path
         d="m 124.70277,934.37501 0,29.4594 -29.459409,0 0,-29.4594 29.459409,0 m -6.92296,9.13241 -3.24054,0 0,-3.24053 -9.16924,0 -0.22094,0 -3.01959,0 0,18.33848 3.24053,0 0,-8.801 9.16924,0 0,-3.24053 3.24054,0 0,-3.05642 m -12.40978,0 9.16924,0 0,3.05642 -9.16924,0 0,-3.05642"
         style="font-variant:normal;font-stretch:normal;font-family:Pixel Twist;-inkscape-font-specification:Pixel Twist"
         id="path5963" />
      <path
         d="m 140.2006,946.19559 0,3.24054 3.20371,0 0,8.72735 -3.20371,0 0,-8.72735 -9.05877,0 0,4.41891 0,4.23479 0,0.0737 -3.20371,0 0,-0.0737 0,-4.23479 0,-13.88275 2.98277,0 0.22094,0 9.05877,0 0,3.24054 3.20371,0 0,2.98276 -3.20371,0 m 0,-2.98276 -9.05877,0 0,2.98276 9.05877,0 0,-2.98276"
         style="font-variant:normal;font-stretch:normal;font-family:Pixel Twist;-inkscape-font-specification:Pixel Twist"
         id="path5965" />
      <path
         d="m 150.16444,943.24965 0,3.01959 9.05877,0 0,3.24054 -9.05877,0 0,5.44999 -3.24054,0 0,-11.71012 3.24054,0 m 0,14.91383 0,-3.20371 9.05877,0 0,3.20371 -9.05877,0 m 9.05877,-14.91383 -9.05877,0 0,-3.20371 9.05877,0 0,3.20371"
         style="font-variant:normal;font-stretch:normal;font-family:Pixel Twist;-inkscape-font-specification:Pixel Twist"
         id="path5967" />
      <path
         d="m 175.2337,949.50978 3.20371,0 0,5.44999 -3.20371,0 0,3.24053 -12.2993,0 0,-3.24053 12.2993,0 0,-5.44999 -9.31654,0 0,-3.20371 -2.98276,0 0,-3.01959 3.20371,0 0,3.01959 9.09559,0 0,3.20371 m 3.20371,-9.42701 0,3.20371 -12.26248,0 0,-3.20371 12.26248,0"
         style="font-variant:normal;font-stretch:normal;font-family:Pixel Twist;-inkscape-font-specification:Pixel Twist"
         id="path5969" />
      <path
         d="m 194.79659,949.50978 3.20371,0 0,5.44999 -3.20371,0 0,3.24053 -12.2993,0 0,-3.24053 12.2993,0 0,-5.44999 -9.31654,0 0,-3.20371 -2.98276,0 0,-3.01959 3.20371,0 0,3.01959 9.09559,0 0,3.20371 m 3.20371,-9.42701 0,3.20371 -12.26248,0 0,-3.20371 12.26248,0"
         style="font-variant:normal;font-stretch:normal;font-family:Pixel Twist;-inkscape-font-specification:Pixel Twist"
         id="path5971" />
    </g>
  </g>
</svg>
