<?xml version="1.0" encoding="UTF-8" standalone="no"?>
<!-- Created with Inkscape (http://www.inkscape.org/) -->

<svg
   xmlns:dc="http://purl.org/dc/elements/1.1/"
   xmlns:cc="http://creativecommons.org/ns#"
   xmlns:rdf="http://www.w3.org/1999/02/22-rdf-syntax-ns#"
   xmlns:svg="http://www.w3.org/2000/svg"
   xmlns="http://www.w3.org/2000/svg"
   xmlns:sodipodi="http://sodipodi.sourceforge.net/DTD/sodipodi-0.dtd"
   xmlns:inkscape="http://www.inkscape.org/namespaces/inkscape"
   width="315"
   height="180"
   id="svg2"
   version="1.1"
   inkscape:version="0.48.4 r9939"
   sodipodi:docname="soviet-02.svg">
  <defs
     id="defs4" />
  <sodipodi:namedview
     id="base"
     pagecolor="#ffffff"
     bordercolor="#666666"
     borderopacity="1.0"
     inkscape:pageopacity="0.0"
     inkscape:pageshadow="2"
     inkscape:zoom="1.3571428"
     inkscape:cx="4.4811246"
     inkscape:cy="164.80375"
     inkscape:document-units="px"
     inkscape:current-layer="layer1"
     showgrid="true"
     inkscape:window-width="1364"
     inkscape:window-height="766"
     inkscape:window-x="0"
     inkscape:window-y="0"
     inkscape:window-maximized="0"
     units="in"
     gridtolerance="5"
     showguides="true"
     inkscape:guide-bbox="true">
    <sodipodi:guide
       orientation="1,0"
       position="30.219511,108.37342"
       id="guide3998" />
    <sodipodi:guide
       orientation="0,1"
       position="3.1261563,29.698485"
       id="guide4000" />
    <sodipodi:guide
       orientation="1,0"
       position="285.00125,136.50882"
       id="guide4002" />
    <sodipodi:guide
       orientation="0,1"
       position="48.976449,150.0555"
       id="guide4004" />
    <sodipodi:guide
       orientation="1,0"
       position="117.1579,230.63158"
       id="guide5252" />
  </sodipodi:namedview>
  <metadata
     id="metadata7">
    <rdf:RDF>
      <cc:Work
         rdf:about="">
        <dc:format>image/svg+xml</dc:format>
        <dc:type
           rdf:resource="http://purl.org/dc/dcmitype/StillImage" />
        <dc:title></dc:title>
      </cc:Work>
    </rdf:RDF>
  </metadata>
  <g
     inkscape:label="Layer 1"
     inkscape:groupmode="layer"
     id="layer1"
     transform="translate(0,-872.35975)">
    <g
       style="font-size:62.93597794px;font-style:normal;font-weight:normal;line-height:125%;letter-spacing:0px;word-spacing:0px;fill:#000000;fill-opacity:1;stroke:none;font-family:Sans"
       id="text3032">
      <path
         d="m 44.065426,921.1199 0,8.81104 23.915672,0 0,13.84592 -37.761587,0 0,-28.95055 12.587196,-12.5872 25.174391,0 0,13.84592 -18.880794,0 -5.034878,5.03487"
         style="font-variant:normal;font-stretch:normal;font-family:Propaganda;-inkscape-font-specification:Propaganda"
         id="path6610" />
      <path
         d="m 111.98711,916.08503 -15.733991,0 13.845911,13.84591 1.88808,0 0,13.84592 -37.761583,0 0,-13.84592 15.733994,0 -13.845915,-13.84591 -1.888079,0 0,-13.84592 37.761583,0 0,13.84592"
         style="font-variant:normal;font-stretch:normal;font-family:Propaganda;-inkscape-font-specification:Propaganda"
         id="path6612" />
      <path
         d="m 132.07746,921.1199 0,8.81104 23.91567,0 0,13.84592 -37.76159,0 0,-28.95055 12.5872,-12.5872 25.17439,0 0,13.84592 -18.88079,0 -5.03488,5.03487"
         style="font-variant:normal;font-stretch:normal;font-family:Propaganda;-inkscape-font-specification:Propaganda"
         id="path6614" />
      <path
         d="m 162.23756,943.77686 0,-20.95897 9.11259,-9.11259 18.22519,0 0,30.07156 -10.02385,0 0,-5.01193 -7.29008,0 0,5.01193 -10.02385,0 m 10.02385,-16.40267 0,1.36689 7.29008,0 0,-5.01193 -3.64504,0 -3.64504,3.64504"
         style="font-size:45.56295776px"
         id="path6616" />
      <path
         d="m 194.09604,943.77686 0,-30.07156 27.33777,0 0,11.39074 -3.64504,3.64504 3.64504,3.64504 0,11.39074 -27.33777,0 m 10.02385,-20.04771 0,10.02385 5.01192,0 -5.01192,-5.01192 5.01192,-5.01193 -5.01192,0"
         style="font-size:45.56295776px"
         id="path6618" />
      <path
         d="m 225.95451,943.77686 0,-20.95897 9.11259,-9.11259 18.22519,0 0,30.07156 -10.02385,0 0,-5.01193 -7.29008,0 0,5.01193 -10.02385,0 m 10.02385,-16.40267 0,1.36689 7.29008,0 0,-5.01193 -3.64504,0 -3.64504,3.64504"
         style="font-size:45.56295776px"
         id="path6620" />
      <path
         d="m 267.83684,913.7053 0,20.0477 7.29007,0 0,-5.01192 10.02385,0 0,15.03578 -27.33777,0 0,-30.07156 10.02385,0"
         style="font-size:45.56295776px"
         id="path6622" />
    </g>
    <g
       id="g4079"
       transform="translate(-560,0)" />
    <g
       style="font-size:10.00001144px;font-style:normal;font-variant:normal;font-weight:normal;font-stretch:normal;line-height:125%;letter-spacing:0.23px;word-spacing:0px;fill:#000000;fill-opacity:1;stroke:none;font-family:Kremlin;-inkscape-font-specification:Kremlin"
       id="text5236">
      <path
         d="m 30.307402,997.92603 1.689455,0 0,-7.36818 -1.689455,0 0,7.36818"
         style=""
         id="path6535" />
      <path
         d="m 39.26788,990.55785 -1.689455,0 0,0.74219 -2.563479,2.58301 0,-3.3252 -1.689455,0 0,7.35841 1.689455,0 0,-1.41602 2.563479,-2.58301 0,3.99903 1.689455,0 0,-7.35841"
         style=""
         id="path6537" />
      <path
         d="m 40.479327,995.07934 4.252935,0 0,1.15235 -4.252935,-0.005 0,1.68946 5.94239,0 0,-4.52149 -4.252935,0 0,-1.14746 4.252935,0 -0.0098,-1.68946 -5.932624,0 0,4.52149"
         style=""
         id="path6539" />
      <path
         d="m 53.580436,990.55785 -5.94239,0 0,1.68946 4.252935,0 0,1.14746 -2.836917,0 0,1.68457 2.768557,0 0.0098,1.14746 -4.194341,0 0,1.68946 5.94239,0 0,-7.35841"
         style=""
         id="path6541" />
      <path
         d="m 60.739154,990.55785 -5.94239,0 0,4.52149 1.821292,0 -1.821292,1.82618 0,1.01074 1.689456,0 2.563479,-2.58301 0,2.58301 1.689455,0 0,-7.35841 m -1.689455,1.68946 0,1.14746 -2.563479,0 0,-1.14746 2.563479,0"
         style=""
         id="path6543" />
      <path
         d="m 61.93107,992.24731 2.163089,0 0,5.66895 1.684572,0 0,-5.66895 2.094729,0 0,-1.68946 -5.94239,0 0,1.68946"
         style=""
         id="path6545" />
      <path
         d="m 71.238737,997.91626 1.689455,0 0,-2.83692 4.252935,0 0,-4.52149 -5.94239,0 0,7.35841 m 4.252935,-5.66895 0,1.14746 -2.56348,0 0,-1.14746 2.56348,0"
         style=""
         id="path6547" />
      <path
         d="m 84.354493,990.55785 -5.942389,0 0,4.52149 1.821291,0 -1.821291,1.82618 0,1.01074 1.689455,0 2.563479,-2.58301 0,2.58301 1.689455,0 0,-7.35841 m -1.689455,1.68946 0,1.14746 -2.563479,0 0,-1.14746 2.563479,0"
         style=""
         id="path6549" />
      <path
         d="m 85.565939,997.91626 5.94239,0 0,-7.35841 -5.94239,0 0,7.35841 m 4.252935,-5.66895 0,3.97949 -2.558597,0 -0.0049,-3.97949 2.56348,0"
         style=""
         id="path6551" />
      <path
         d="m 92.724661,997.92603 5.947272,0 0,-1.68946 -4.257817,0 0,-5.67872 -1.689455,0 0,7.36818"
         style=""
         id="path6553" />
      <path
         d="m 105.83065,990.55785 -5.942392,0 0,1.68946 4.252932,0 0,1.14746 -2.83691,0 0,1.68457 2.76855,0 0.01,1.14746 -4.194342,0 0,1.68946 5.942392,0 0,-7.35841"
         style=""
         id="path6555" />
      <path
         d="m 107.03721,992.24731 2.16309,0 0,5.66895 1.68458,0 0,-5.66895 2.09472,0 0,-1.68946 -5.94239,0 0,1.68946"
         style=""
         id="path6557" />
      <path
         d="m 114.21547,997.91626 1.68945,0 0,-1.41602 2.56348,0 0,1.41602 1.68946,0 0,-7.35841 -5.94239,0 0,7.35841 m 4.25293,-5.66895 0,2.56348 -2.56348,0 0,-2.56348 2.56348,0"
         style=""
         id="path6559" />
      <path
         d="m 127.31657,990.55785 -5.94239,0 0,4.52149 1.82129,0 -1.82129,1.82618 0,1.01074 1.68946,0 2.56348,-2.58301 0,2.58301 1.68945,0 0,-7.35841 m -1.68945,1.68946 0,1.14746 -2.56348,0 0,-1.14746 2.56348,0"
         style=""
         id="path6561" />
      <path
         d="m 128.52314,997.92603 1.68945,0 0,-7.36818 -1.68945,0 0,7.36818"
         style=""
         id="path6563" />
      <path
         d="m 131.54611,997.91626 1.68946,0 0,-1.41602 2.56347,0 0,1.41602 1.68946,0 0,-7.35841 -5.94239,0 0,7.35841 m 4.25293,-5.66895 0,2.56348 -2.56347,0 0,-2.56348 2.56347,0"
         style=""
         id="path6565" />
      <path
         d="m 138.69506,992.24731 2.16309,0 0,5.66895 1.68457,0 0,-5.66895 2.09473,0 0,-1.68946 -5.94239,0 0,1.68946"
         style=""
         id="path6567" />
      <path
         d="m 145.90261,995.00122 2.92969,0 0,-1.46485 -2.92969,0 0,1.46485"
         style=""
         id="path6569" />
      <path
         d="m 150.1121,995.07934 4.25294,0 0,1.15235 -4.25294,-0.005 0,1.68946 5.94239,0 0,-4.52149 -4.25293,0 0,-1.14746 4.25293,0 -0.01,-1.68946 -5.93263,0 0,4.52149"
         style=""
         id="path6571" />
      <path
         d="m 161.53841,996.23657 -2.5586,0 0,-5.67872 -1.7041,0 0,7.36818 4.72657,-0.005 0,1.4209 1.68945,0 -0.005,-3.10547 -0.45899,0 0,-5.67872 -1.68457,0 -0.005,5.67872"
         style=""
         id="path6573" />
      <path
         d="m 164.45885,997.91626 1.68945,0 0,-2.83692 4.25293,0 0,-4.52149 -5.94238,0 0,7.35841 m 4.25293,-5.66895 0,1.14746 -2.56348,0 0,-1.14746 2.56348,0"
         style=""
         id="path6575" />
      <path
         d="m 171.62245,997.91626 1.68946,0 0,-2.83692 4.25293,0 0,-4.52149 -5.94239,0 0,7.35841 m 4.25293,-5.66895 0,1.14746 -2.56347,0 0,-1.14746 2.56347,0"
         style=""
         id="path6577" />
      <path
         d="m 178.80557,997.91626 5.94239,0 0,-7.35841 -5.94239,0 0,7.35841 m 4.25294,-5.66895 0,3.97949 -2.5586,0 -0.005,-3.97949 2.56348,0"
         style=""
         id="path6579" />
      <path
         d="m 191.9018,990.55785 -5.94239,0 0,4.52149 1.82129,0 -1.82129,1.82618 0,1.01074 1.68945,0 2.56348,-2.58301 0,2.58301 1.68946,0 0,-7.35841 m -1.68946,1.68946 0,1.14746 -2.56348,0 0,-1.14746 2.56348,0"
         style=""
         id="path6581" />
      <path
         d="m 193.09372,992.24731 2.16309,0 0,5.66895 1.68457,0 0,-5.66895 2.09473,0 0,-1.68946 -5.94239,0 0,1.68946"
         style=""
         id="path6583" />
      <path
         d="m 200.27197,997.92603 1.68946,0 0,-7.36818 -1.68946,0 0,7.36818"
         style=""
         id="path6585" />
      <path
         d="m 209.23244,990.55785 -1.68945,0 0,0.74219 -2.56348,2.58301 0,-3.3252 -1.68946,0 0,7.35841 1.68946,0 0,-1.41602 2.56348,-2.58301 0,3.99903 1.68945,0 0,-7.35841"
         style=""
         id="path6587" />
      <path
         d="m 210.43901,997.91626 5.94239,0 0,-4.52149 -1.68946,0 0,2.83203 -2.56348,0 0,-3.97949 4.25294,0 0,-1.68946 -5.94239,0 0,7.35841"
         style=""
         id="path6589" />
      <path
         d="m 219.71249,997.91626 1.68946,0 0,-3.91602 1.0791,1.0791 0.40527,0 1.07911,-1.0791 0,3.91602 1.68945,0 0,-7.35841 -1.0791,0 -1.875,1.87012 -1.88965,-1.87012 -1.09864,0 0,7.35841"
         style=""
         id="path6591" />
      <path
         d="m 226.89563,997.91626 5.94239,0 0,-7.35841 -5.94239,0 0,7.35841 m 4.25293,-5.66895 0,3.97949 -2.55859,0 -0.005,-3.97949 2.56348,0"
         style=""
         id="path6593" />
      <path
         d="m 234.0397,992.24731 2.16309,0 0,5.66895 1.68457,0 0,-5.66895 2.09473,0 0,-1.68946 -5.94239,0 0,1.68946"
         style=""
         id="path6595" />
      <path
         d="m 241.20331,992.24731 2.16308,0 0,5.66895 1.68458,0 0,-5.66895 2.09473,0 0,-1.68946 -5.94239,0 0,1.68946"
         style=""
         id="path6597" />
      <path
         d="m 248.38644,997.91626 5.94239,0 0,-7.35841 -5.94239,0 0,7.35841 m 4.25294,-5.66895 0,3.97949 -2.5586,0 -0.005,-3.97949 2.56348,0"
         style=""
         id="path6599" />
      <path
         d="m 257.68922,997.91626 1.69922,0 0,-2.85645 2.58301,0 0,2.85645 1.69922,0 0,-7.40724 -1.69922,0 0,2.85645 -2.58301,0 0,-2.85645 -1.69922,0 0,7.40724"
         style=""
         id="path6601" />
      <path
         d="m 270.79522,990.55785 -5.94239,0 0,1.68946 4.25293,0 0,1.14746 -2.83692,0 0,1.68457 2.76856,0 0.01,1.14746 -4.19434,0 0,1.68946 5.94239,0 0,-7.35841"
         style=""
         id="path6603" />
      <path
         d="m 277.95392,990.55785 -5.94239,0 0,4.52149 1.82129,0 -1.82129,1.82618 0,1.01074 1.68946,0 2.56348,-2.58301 0,2.58301 1.68945,0 0,-7.35841 m -1.68945,1.68946 0,1.14746 -2.56348,0 0,-1.14746 2.56348,0"
         style=""
         id="path6605" />
      <path
         d="m 285.10288,990.55785 -5.94239,0 0,1.68946 4.25293,0 0,1.14746 -2.83691,0 0,1.68457 2.76856,0 0.01,1.14746 -4.19434,0 0,1.68946 5.94239,0 0,-7.35841"
         style=""
         id="path6607" />
    </g>
    <g
       style="font-size:10px;font-style:normal;font-variant:normal;font-weight:normal;font-stretch:normal;line-height:125%;letter-spacing:0px;word-spacing:0px;fill:#000000;fill-opacity:1;stroke:none;font-family:Propaganda;-inkscape-font-specification:Propaganda"
       id="text5240">
      <path
         d="m 169.46317,901.58573 0,2.2 1.6,0 0,-2.2 2.2,0 0,6.6 -2.2,0 0,-2.2 -1.6,0 0,2.2 -2.2,0 0,-6.6 2.2,0"
         style=""
         id="path6498" />
      <path
         d="m 174.25536,903.78573 0,-2.2 6,0 0,2.2 -1.9,0 0,4.4 -2.2,0 0,-4.4 -1.9,0"
         style=""
         id="path6500" />
      <path
         d="m 181.24754,903.78573 0,-2.2 6,0 0,2.2 -1.9,0 0,4.4 -2.2,0 0,-4.4 -1.9,0"
         style=""
         id="path6502" />
      <path
         d="m 194.23973,907.08573 -3.8,0 0,1.1 -2.2,0 0,-6.6 4,0 2,2 0,3.5 m -2.2,-2.5 -0.8,-0.8 -0.8,0 0,1.1 1.6,0 0,-0.3"
         style=""
         id="path6504" />
      <path
         d="m 197.43192,905.98573 0,2.2 -2.2,0 0,-2.2 2.2,0 m -2.2,-1.1 0,-2.2 2.2,0 0,2.2 -2.2,0"
         style=""
         id="path6506" />
      <path
         d="m 202.23504,902.48573 0,-0.9 2.2,0 0,1.9 -3.8,3.8 0,0.9 -2.2,0 0,-1.9 3.8,-3.8"
         style=""
         id="path6508" />
      <path
         d="m 209.22723,902.48573 0,-0.9 2.2,0 0,1.9 -3.8,3.8 0,0.9 -2.2,0 0,-1.9 3.8,-3.8"
         style=""
         id="path6510" />
      <path
         d="m 214.61942,904.58573 0,1.4 3.8,0 0,2.2 -6,0 0,-4.6 2,-2 4,0 0,2.2 -3,0 -0.8,0.8"
         style=""
         id="path6512" />
      <path
         d="m 225.41161,903.78573 -2.5,0 2.2,2.2 0.3,0 0,2.2 -6,0 0,-2.2 2.5,0 -2.2,-2.2 -0.3,0 0,-2.2 6,0 0,2.2"
         style=""
         id="path6514" />
      <path
         d="m 228.60379,904.58573 0,1.4 3.8,0 0,2.2 -6,0 0,-4.6 2,-2 4,0 0,2.2 -3,0 -0.8,0.8"
         style=""
         id="path6516" />
      <path
         d="m 233.39598,908.18573 0,-4.6 2,-2 4,0 0,6.6 -2.2,0 0,-1.1 -1.6,0 0,1.1 -2.2,0 m 2.2,-3.6 0,0.3 1.6,0 0,-1.1 -0.8,0 -0.8,0.8"
         style=""
         id="path6518" />
      <path
         d="m 240.38817,908.18573 0,-6.6 6,0 0,2.5 -0.8,0.8 0.8,0.8 0,2.5 -6,0 m 2.2,-4.4 0,2.2 1.1,0 -1.1,-1.1 1.1,-1.1 -1.1,0"
         style=""
         id="path6520" />
      <path
         d="m 247.38036,908.18573 0,-4.6 2,-2 4,0 0,6.6 -2.2,0 0,-1.1 -1.6,0 0,1.1 -2.2,0 m 2.2,-3.6 0,0.3 1.6,0 0,-1.1 -0.8,0 -0.8,0.8"
         style=""
         id="path6522" />
      <path
         d="m 256.57254,901.58573 0,4.4 1.6,0 0,-1.1 2.2,0 0,3.3 -6,0 0,-6.6 2.2,0"
         style=""
         id="path6524" />
      <path
         d="m 263.56473,905.98573 0,2.2 -2.2,0 0,-2.2 2.2,0"
         style=""
         id="path6526" />
      <path
         d="m 266.76786,904.58573 0,1.4 3.8,0 0,2.2 -6,0 0,-4.6 2,-2 4,0 0,2.2 -3,0 -0.8,0.8"
         style=""
         id="path6528" />
      <path
         d="m 271.56004,908.18573 0,-6.6 6,0 0,6.6 -6,0 m 2.2,-4.4 0,2.2 1.6,0 0,-2.2 -1.6,0"
         style=""
         id="path6530" />
      <path
         d="m 280.75223,901.58573 0,0.8 1.1,1.1 1.1,-1.1 0,-0.8 2.2,0 0,6.6 -2.2,0 0,-2.6 -1.1,1.1 -1.1,-1.1 0,2.6 -2.2,0 0,-6.6 2.2,0"
         style=""
         id="path6532" />
    </g>
    <g
       style="font-size:62.93597794px;font-style:normal;font-weight:normal;line-height:125%;letter-spacing:0px;word-spacing:0px;fill:#000000;fill-opacity:1;stroke:none;font-family:Sans"
       id="text5300">
      <path
         d="m 155.9811,980.8539 -23.91567,0 0,6.92296 -13.84592,0 0,-41.53775 25.17439,0 12.5872,12.5872 0,22.02759 m -13.84592,-15.734 -5.03487,-5.03487 -5.03488,0 0,6.92295 10.06975,0 0,-1.88808"
         style="font-variant:normal;font-stretch:normal;font-family:Propaganda;-inkscape-font-specification:Propaganda"
         id="path6487" />
      <path
         d="m 179.53945,969.09604 -7.29007,0 0,3.64504 3.64504,0 3.64503,-3.64504 m 10.02385,-11.39074 0,15.03578 -5.01192,5.01192 5.01192,5.01193 0,5.01193 -10.02385,0 0,-1.36689 -3.64503,-3.64504 -3.64504,0 0,5.01193 -10.02385,0 0,-30.07156 27.33777,0"
         style="font-size:45.56295776px"
         id="path6489" />
      <path
         d="m 221.42177,967.72915 -13.66888,0 5.01192,5.01193 -5.01192,5.01192 13.66888,0 0,10.02386 -27.33777,0 0,-10.02386 5.01192,-5.01192 -5.01192,-5.01193 0,-10.02385 27.33777,0 0,10.02385"
         style="font-size:45.56295776px"
         id="path6491" />
      <path
         d="m 253.28025,967.72915 -11.39074,0 10.02385,10.02385 1.36689,0 0,10.02386 -27.33778,0 0,-10.02386 11.39074,0 -10.02385,-10.02385 -1.36689,0 0,-10.02385 27.33778,0 0,10.02385"
         style="font-size:45.56295776px"
         id="path6493" />
      <path
         d="m 285.13872,967.72915 -11.39074,0 10.02386,10.02385 1.36688,0 0,10.02386 -27.33777,0 0,-10.02386 11.39074,0 -10.02385,-10.02385 -1.36689,0 0,-10.02385 27.33777,0 0,10.02385"
         style="font-size:45.56295776px"
         id="path6495" />
    </g>
  </g>
</svg>
